{"title":"Geronimo.2014.DVDRip.XviD.HORiZON-ArtSubs","uid":12641342,"size":1465194496,"categoryP":"video","categoryS":"movies","magnet":"?xt=urn:btih:1f6ffe124f2796e80d8bcf6d52c90eaf833fedd8&amp;dn=Geronimo.2014.DVDRip.XviD.HORiZON-ArtSubs&amp;tr=udp%3A%2F%2Ftracker.leechers-paradise.org%3A6969&amp;tr=udp%3A%2F%2Fzer0day.ch%3A1337&amp;tr=udp%3A%2F%2Fopen.demonii.com%3A1337&amp;tr=udp%3A%2F%2Ftracker.coppersurfer.tk%3A6969&amp;tr=udp%3A%2F%2Fexodus.desync.com%3A6969","seeders":1,"leechers":2,"uploader":"lletaif","files":1,"time":1445997795,"description":"Media Info:\r\n\r\nGeneral\r\nComplete name                            : Geronimo.2014.DVDRip.XviD.HORiZON-ArtSubs\r\nFormat                                   : AVI\r\nFormat/Info                              : Audio Video Interleave\r\nFile size                                : 1.36 GiB\r\nDuration                                 : 1h 40mn\r\nOverall bit rate                         : 1 947 Kbps\r\nWriting application                      : VirtualDubMod 1.5.10.3 | www.virtualdub-fr.org || (build 2550/release)\r\nWriting library                          : VirtualDubMod build 2550/release\r\n\r\nVideo\r\nID                                       : 0\r\nFormat                                   : MPEG-4 Visual\r\nFormat profile                           : Advanced   \r\nFormat settings, BVOP                    : 1\r\nFormat settings, QPel                    : No\r\nFormat settings, GMC                     : No warppoints\r\nFormat settings, Matrix                  : Default (MPEG)\r\nCodec ID                                 : XVID\r\nCodec ID/Hint                            : XviD\r\nDuration                                 : 1h 40mn\r\nBit rate                                 : 1 746 Kbps\r\nWidth                                    : 720 pixels\r\nHeight                                   : 304 pixels\r\nDisplay aspect ratio                     : 2.35:1\r\nFrame rate                               : 25.000 fps\r\nColor space                              : YUV\r\nChroma subsampling                       : 4:2:0\r\nBit depth                                : 8 bits\r\nScan type                                : Progressive\r\nCompression mode                         : Lossy\r\nBits/(Pixel*Frame)                       : 0.319\r\nStream size                              : 1.22 GiB (90%)\r\nWriting library                          : XviD 1.2.1 (UTC 2008-12-04)\r\n\r\nAudio\r\nID                                       : 1\r\nFormat                                   : MPEG Audio\r\nFormat version                           : Version 1\r\nFormat profile                           : Layer 3\r\nCodec ID                                 : 55\r\nCodec ID/Hint                            : MP3\r\nDuration                                 : 1h 40mn\r\nBit rate mode                            : Constant\r\nBit rate                                 : 192 Kbps\r\nChannel(s)                               : 2 channels\r\nSampling rate                            : 48.0 KHz\r\nCompression mode                         : Lossy\r\nStream size                              : 138 MiB (10%)\r\nAlignment                                : Aligned on interleaves\r\nInterleave, duration                     : 40 ms (1.00 video frame)\r\nInterleave, preload duration             : 504 ms\r\nWriting library                          : LAME3.99r\r\nEncoding settings                        : -m s -V 4 -q 0 -lowpass 18.6 -b 192","torrent":{"xt":"urn:btih:1f6ffe124f2796e80d8bcf6d52c90eaf833fedd8","amp;dn":"Geronimo.2014.DVDRip.XviD.HORiZON-ArtSubs","amp;tr":["udp%3A%2F%2Ftracker.leechers-paradise.org%3A6969","udp%3A%2F%2Fzer0day.ch%3A1337","udp%3A%2F%2Fopen.demonii.com%3A1337","udp%3A%2F%2Ftracker.coppersurfer.tk%3A6969","udp%3A%2F%2Fexodus.desync.com%3A6969"],"infoHash":"1f6ffe124f2796e80d8bcf6d52c90eaf833fedd8","infoHashBuffer":{"type":"Buffer","data":[31,111,254,18,79,39,150,232,13,139,207,109,82,201,14,175,131,63,237,216]},"announce":[],"urlList":[]}}